<?xml version="1.0" standalone="no"?>
<!DOCTYPE svg PUBLIC "-//W3C//DTD SVG 20010904//EN"
 "http://www.w3.org/TR/2001/REC-SVG-20010904/DTD/svg10.dtd">
<svg version="1.0" xmlns="http://www.w3.org/2000/svg"
 width="640.000000pt" height="640.000000pt" viewBox="0 0 640.000000 640.000000"
 preserveAspectRatio="xMidYMid meet">
<metadata>
Created by potrace 1.11, written by Peter Selinger 2001-2013
</metadata>
<g transform="translate(0.000000,640.000000) scale(0.100000,-0.100000)"
fill="#000000" stroke="none">
<path d="M3115 6135 c-27 -14 -72 -39 -100 -56 -27 -16 -59 -34 -70 -39 -11
-6 -33 -19 -50 -29 -36 -22 -75 -45 -175 -101 -41 -23 -95 -55 -120 -70 -25
-15 -67 -40 -95 -55 -27 -15 -105 -59 -172 -97 -71 -40 -127 -67 -134 -62 -8
5 -9 3 -5 -5 5 -8 0 -14 -13 -18 -12 -3 -21 -9 -21 -13 0 -7 -29 -18 -47 -18
-3 0 -9 -4 -12 -9 -3 -5 -40 -29 -81 -53 -118 -68 -630 -364 -680 -392 -25
-14 -191 -109 -369 -212 -178 -102 -327 -186 -331 -186 -9 0 -42 -40 -55 -65
-7 -13 -10 -529 -10 -1487 0 -1454 0 -1468 20 -1487 11 -11 72 -49 135 -85 63
-36 122 -70 130 -75 22 -14 451 -264 480 -280 27 -15 53 -30 112 -64 20 -12
67 -40 105 -62 37 -22 77 -45 88 -52 11 -7 27 -16 35 -20 8 -4 71 -40 139 -80
67 -40 125 -73 127 -73 3 0 21 -11 42 -23 31 -20 546 -320 647 -377 17 -10 55
-32 85 -50 30 -18 140 -81 243 -141 210 -120 198 -117 295 -60 29 17 54 31 56
31 2 0 33 17 67 38 35 22 84 50 109 64 25 14 61 35 80 47 19 11 42 24 50 28 8
4 80 44 158 90 79 46 148 83 153 83 5 0 9 5 9 10 0 6 4 10 9 10 5 0 157 85
338 188 180 104 468 269 638 367 171 98 324 186 340 195 379 215 474 273 485
300 18 44 23 2935 5 2970 -7 14 -30 35 -52 46 -21 12 -94 54 -163 94 -68 40
-139 81 -157 91 -37 21 -59 34 -183 106 -121 71 -308 180 -425 248 -55 31
-314 181 -575 333 -261 151 -486 282 -500 290 -14 9 -38 24 -55 32 -16 9 -59
34 -95 55 -36 20 -79 46 -97 56 -18 10 -78 45 -135 78 -57 33 -114 62 -128 66
-16 3 -42 -4 -75 -20z"/>
</g>
</svg>
